#!OML:ASF F:\VICON\USERDATA\INSTALL\rory3\rory3.ASF
:FULLY-SPECIFIED
:DEGREES
871
root -1.43968 17.5792 -3.00587 6.12992 33.396 -2.16178
lowerback 4.54767 7.91817 4.01848
upperback 2.21835 10.7369 -3.66824
thorax 1.22683 5.49574 -6.25203
lowerneck -13.6658 -12.0592 -17.2227
upperneck 19.0339 -14.7701 9.2681
head 10.3466 -7.18196 3.88978
rclavicle 7.38485e-014 -5.56597e-014
rhumerus 22.341 14.0241 -66.1713
rradius 46.9478
rwrist 33.5305
rhand -27.8552 6.17461
rfingers 7.12502
rthumb -1.24603 -23.8015
lclavicle 7.38485e-014 -5.56597e-014
lhumerus -23.2387 21.0325 31.7477
lradius 54.6857
lwrist -9.17369
lhand -23.7284 20.8662
lfingers 7.12502
lthumb 2.73966 50.8284
rfemur -18.7456 -12.4709 25.115
rtibia 37.2311
rfoot -26.9659 -8.7106
rtoes 9.79595
lfemur -27.2187 -7.00598 -14.1618
ltibia 35.6765
lfoot -14.2026 -14.2197
ltoes -9.0619
872
root -1.448 17.5782 -3.01018 6.14698 33.2366 -2.02016
lowerback 4.64582 7.83037 3.90399
upperback 2.20208 10.6152 -3.60807
thorax 1.10553 5.42754 -6.1486
lowerneck -13.7406 -12.0361 -17.2193
upperneck 19.0308 -14.7229 9.25261
head 10.3507 -7.15927 3.88883
rclavicle -1.85665e-013 6.24184e-014
rhumerus 21.9078 13.9478 -66.0085
rradius 47.1397
rwrist 33.3778
rhand -27.8812 6.06329
rfingers 7.12502
rthumb -1.27118 -23.9127
lclavicle -1.85665e-013 6.24184e-014
lhumerus -23.5731 21.0572 32.0876
lradius 54.6993
lwrist -9.26518
lhand -23.7528 20.6529
lfingers 7.12502
lthumb 2.71614 50.6154
rfemur -18.6791 -12.2733 24.9938
rtibia 37.194
rfoot -26.9852 -8.77821
rtoes 9.8664
lfemur -27.1316 -7.02584 -14.2637
ltibia 35.6287
lfoot -14.1711 -14.1158
ltoes -8.90615
873
root -1.45527 17.5777 -3.00979 6.15184 33.0389 -1.91589
lowerback 4.65427 7.73035 3.76286
upperback 2.17868 10.4745 -3.57497
thorax 1.02492 5.35091 -6.04486
lowerneck -13.7416 -11.9353 -16.9685
upperneck 18.9321 -14.6235 9.20469
head 10.275 -7.10166 3.85433
rclavicle -5.36719e-015 2.90226e-014
rhumerus 21.4178 13.8901 -66.0755
rradius 47.3217
rwrist 33.3236
rhand -27.8721 5.88714
rfingers 7.12502
rthumb -1.26241 -24.0889
lclavicle -5.36719e-015 2.90226e-014
lhumerus -23.9493 20.9902 32.3666
lradius 54.7737
lwrist -9.38827
lhand -23.9396 21.6968
lfingers 7.12502
lthumb 2.53565 51.6615
rfemur -18.6327 -12.1033 24.905
rtibia 37.2157
rfoot -27.0263 -8.80012
rtoes 9.88582
lfemur -26.9953 -7.02085 -14.329
ltibia 35.5424
lfoot -14.1761 -13.9624
ltoes -8.88659
874
root -1.45995 17.5803 -3.00913 6.16024 32.7639 -1.83871
lowerback 4.55404 7.58042 3.58224
upperback 2.2005 10.2631 -3.47179
thorax 1.02247 5.2398 -5.82766
lowerneck -13.8944 -11.8266 -16.9082
upperneck 18.9452 -14.4628 9.20868
head 10.2798 -7.0188 3.86931
rclavicle 1.44119e-014 2.18663e-014
rhumerus 21.009 14.0253 -66.1867
rradius 47.5367
rwrist 33.2042
rhand -27.817 6.00582
rfingers 7.12502
rthumb -1.20918 -23.9705
lclavicle 1.44119e-014 2.18663e-014
lhumerus -24.5765 20.9982 32.6061
lradius 54.9105
lwrist -9.45759
lhand -24.2624 22.501
lfingers 7.12502
lthumb 2.22397 52.4691
rfemur -18.614 -11.9158 24.8245
rtibia 37.252
rfoot -27.0382 -8.7521
rtoes 10.0025
lfemur -26.843 -6.98362 -14.3717
ltibia 35.4573
lfoot -14.1978 -13.7741
ltoes -8.95467
875
root -1.46442 17.5788 -3.0111 6.2083 32.4492 -1.70083
lowerback 4.51989 7.43858 3.37802
upperback 2.20974 10.0629 -3.37102
thorax 0.970353 5.13259 -5.61131
lowerneck -14.0385 -11.7432 -16.9975
upperneck 18.9598 -14.3069 9.22783
head 10.2983 -6.94711 3.91091
rclavicle 5.06901e-015 5.96354e-015
rhumerus 20.5893 13.975 -66.4281
rradius 47.6733
rwrist 33.1943
rhand -27.6496 6.70611
rfingers 7.12502
rthumb -1.0475 -23.2711
lclavicle 5.06901e-015 5.96354e-015
lhumerus -25.1947 21.0888 32.835
lradius 54.9267
lwrist -9.49788
lhand -24.4094 21.6984
lfingers 7.12502
lthumb 2.08201 51.668
rfemur -18.6278 -11.7504 24.6774
rtibia 37.2891
rfoot -27.0101 -8.63144
rtoes 10.2687
lfemur -26.7246 -6.9164 -14.4878
ltibia 35.3888
lfoot -14.237 -13.5652
ltoes -9.42395
876
root -1.47102 17.5771 -3.01304 6.20265 32.19 -1.61611
lowerback 4.50022 7.26861 3.22269
upperback 2.25118 9.82771 -3.23501
thorax 0.94367 5.00952 -5.38388
lowerneck -14.1554 -11.6249 -17.0068
upperneck 18.8548 -14.1 9.17603
head 10.2488 -6.8544 3.92628
rclavicle 6.33129e-014 -8.34896e-015
rhumerus 20.2209 13.9554 -66.5361
rradius 47.8224
rwrist 33.1622
rhand -27.6737 6.84723
rfingers 7.12502
rthumb -1.07077 -23.1298
lclavicle 6.33129e-014 -8.34896e-015
lhumerus -25.809 21.2891 33.1157
lradius 54.9541
lwrist -9.50911
lhand -24.1514 20.989
lfingers 7.12502
lthumb 2.33118 50.956
rfemur -18.6058 -11.6396 24.5948
rtibia 37.3051
rfoot -26.9428 -8.62261
rtoes 9.98051
lfemur -26.6031 -6.91014 -14.535
ltibia 35.3472
lfoot -14.2163 -13.404
ltoes -9.70947
877
root -1.4771 17.5781 -3.0157 6.20104 31.9153 -1.55074
lowerback 4.49033 7.08365 3.08486
upperback 2.21225 9.57287 -3.14522
thorax 0.839527 4.87428 -5.22058
lowerneck -14.0784 -11.4419 -16.826
upperneck 18.6799 -13.8711 9.09985
head 10.1182 -6.74717 3.91816
rclavicle -1.19271e-014 -6.75868e-015
rhumerus 19.741 14.0665 -66.7509
rradius 47.9643
rwrist 33.0636
rhand -27.8821 6.2211
rfingers 7.12502
rthumb -1.27201 -23.7549
lclavicle -1.19271e-014 -6.75868e-015
lhumerus -26.4575 21.3136 33.3123
lradius 54.978
lwrist -9.3772
lhand -24.1249 21.303
lfingers 7.12502
lthumb 2.35675 51.2698
rfemur -18.6 -11.4517 24.5355
rtibia 37.3068
rfoot -26.8545 -8.74211
rtoes 9.5779
lfemur -26.5126 -6.91466 -14.563
ltibia 35.3235
lfoot -14.2164 -13.1993
ltoes -10.6326
